<mxfile host="65bd71144e">
    <diagram name="Sustainable Trial Framework" id="trial-framework">
        <mxGraphModel dx="690" dy="428" grid="1" gridSize="10" guides="1" tooltips="1" connect="1" arrows="1" fold="1" page="1" pageScale="1" pageWidth="1100" pageHeight="850" math="0" shadow="0">
            <root>
                <mxCell id="0"/>
                <mxCell id="1" parent="0"/>
                <mxCell id="2" value="&lt;font style=&quot;font-size: 24px;&quot; face=&quot;Arial&quot;&gt;&lt;b&gt;Framework for Sustainable Clinical Trials&lt;/b&gt;&lt;/font&gt;" style="text;html=1;strokeColor=none;fillColor=none;align=center;verticalAlign=middle;whiteSpace=wrap;rounded=0;fontColor=#00539B;shadow=0;" vertex="1" parent="1">
                    <mxGeometry x="200" y="20" width="700" height="40" as="geometry"/>
                </mxCell>
                <mxCell id="3" value="" style="rounded=1;whiteSpace=wrap;html=1;fillColor=#F5F5F5;strokeColor=#666666;shadow=0;" vertex="1" parent="1">
                    <mxGeometry x="100" y="70" width="900" height="500" as="geometry"/>
                </mxCell>
                <mxCell id="4" value="&lt;font style=&quot;font-size: 16px;&quot; face=&quot;Arial&quot;&gt;&lt;b&gt;ASSESS&lt;/b&gt;&lt;/font&gt;" style="ellipse;whiteSpace=wrap;html=1;aspect=fixed;fillColor=#E3F2FD;strokeColor=#00539B;fontColor=#00539B;shadow=1;" vertex="1" parent="1">
                    <mxGeometry x="180" y="160" width="140" height="140" as="geometry"/>
                </mxCell>
                <mxCell id="5" value="&lt;font style=&quot;font-size: 16px;&quot; face=&quot;Arial&quot;&gt;&lt;b&gt;DESIGN&lt;/b&gt;&lt;/font&gt;" style="ellipse;whiteSpace=wrap;html=1;aspect=fixed;fillColor=#E8F5E9;strokeColor=#228B22;fontColor=#228B22;shadow=1;" vertex="1" parent="1">
                    <mxGeometry x="380" y="160" width="140" height="140" as="geometry"/>
                </mxCell>
                <mxCell id="6" value="&lt;font style=&quot;font-size: 16px;&quot; face=&quot;Arial&quot;&gt;&lt;b&gt;IMPLEMENT&lt;/b&gt;&lt;/font&gt;" style="ellipse;whiteSpace=wrap;html=1;aspect=fixed;fillColor=#FFF3E0;strokeColor=#FF8C00;fontColor=#FF8C00;shadow=1;" vertex="1" parent="1">
                    <mxGeometry x="580" y="160" width="140" height="140" as="geometry"/>
                </mxCell>
                <mxCell id="7" value="&lt;font style=&quot;font-size: 16px;&quot; face=&quot;Arial&quot;&gt;&lt;b&gt;MONITOR&lt;/b&gt;&lt;/font&gt;" style="ellipse;whiteSpace=wrap;html=1;aspect=fixed;fillColor=#FFEBEE;strokeColor=#B22222;fontColor=#B22222;shadow=1;" vertex="1" parent="1">
                    <mxGeometry x="780" y="160" width="140" height="140" as="geometry"/>
                </mxCell>
                <mxCell id="8" value="" style="shape=flexArrow;endArrow=classic;html=1;rounded=0;fillColor=#00539B;strokeColor=none;width=16;endSize=6.33;" edge="1" parent="1">
                    <mxGeometry width="50" height="50" relative="1" as="geometry">
                        <mxPoint x="320" y="229.5" as="sourcePoint"/>
                        <mxPoint x="380" y="229.5" as="targetPoint"/>
                    </mxGeometry>
                </mxCell>
                <mxCell id="9" value="" style="shape=flexArrow;endArrow=classic;html=1;rounded=0;fillColor=#00539B;strokeColor=none;width=16;endSize=6.33;" edge="1" parent="1">
                    <mxGeometry width="50" height="50" relative="1" as="geometry">
                        <mxPoint x="520" y="229.5" as="sourcePoint"/>
                        <mxPoint x="580" y="229.5" as="targetPoint"/>
                    </mxGeometry>
                </mxCell>
                <mxCell id="10" value="" style="shape=flexArrow;endArrow=classic;html=1;rounded=0;fillColor=#00539B;strokeColor=none;width=16;endSize=6.33;" edge="1" parent="1">
                    <mxGeometry width="50" height="50" relative="1" as="geometry">
                        <mxPoint x="720" y="229.5" as="sourcePoint"/>
                        <mxPoint x="780" y="229.5" as="targetPoint"/>
                    </mxGeometry>
                </mxCell>
                <mxCell id="11" value="" style="rounded=1;whiteSpace=wrap;html=1;shadow=1;glass=0;fillColor=#E3F2FD;strokeColor=#00539B;fontColor=#00539B;opacity=80;" vertex="1" parent="1">
                    <mxGeometry x="165" y="320" width="170" height="170" as="geometry"/>
                </mxCell>
                <mxCell id="12" value="&lt;font face=&quot;Arial&quot;&gt;&lt;span style=&quot;font-size: 14px;&quot;&gt;&lt;b&gt;Carbon Assessment&lt;/b&gt;&lt;/span&gt;&lt;/font&gt;" style="text;html=1;strokeColor=none;fillColor=none;align=center;verticalAlign=middle;whiteSpace=wrap;rounded=0;fontColor=#00539B;" vertex="1" parent="1">
                    <mxGeometry x="180" y="330" width="140" height="30" as="geometry"/>
                </mxCell>
                <mxCell id="13" value="&lt;div style=&quot;font-size: 12px; text-align: left;&quot;&gt;&lt;font face=&quot;Arial&quot; style=&quot;font-size: 12px;&quot;&gt;• Use standardized carbon&lt;/font&gt;&lt;/div&gt;&lt;div style=&quot;font-size: 12px; text-align: left;&quot;&gt;&lt;font face=&quot;Arial&quot; style=&quot;font-size: 12px;&quot;&gt;&amp;nbsp; assessment tools&lt;/font&gt;&lt;/div&gt;&lt;div style=&quot;font-size: 12px; text-align: left;&quot;&gt;&lt;font face=&quot;Arial&quot; style=&quot;font-size: 12px;&quot;&gt;• Identify emission hotspots&lt;/font&gt;&lt;/div&gt;&lt;div style=&quot;font-size: 12px; text-align: left;&quot;&gt;&lt;font face=&quot;Arial&quot; style=&quot;font-size: 12px;&quot;&gt;• Set reduction targets&lt;/font&gt;&lt;/div&gt;&lt;div style=&quot;font-size: 12px; text-align: left;&quot;&gt;&lt;font face=&quot;Arial&quot; style=&quot;font-size: 12px;&quot;&gt;• Estimate CO₂e baseline&lt;/font&gt;&lt;/div&gt;&lt;div style=&quot;font-size: 12px; text-align: left;&quot;&gt;&lt;font face=&quot;Arial&quot; style=&quot;font-size: 12px;&quot;&gt;• Audit previous studies&lt;/font&gt;&lt;/div&gt;" style="text;html=1;strokeColor=none;fillColor=none;align=center;verticalAlign=middle;whiteSpace=wrap;rounded=0;" vertex="1" parent="1">
                    <mxGeometry x="170" y="360" width="160" height="120" as="geometry"/>
                </mxCell>
                <mxCell id="14" value="" style="rounded=1;whiteSpace=wrap;html=1;shadow=1;glass=0;fillColor=#E8F5E9;strokeColor=#228B22;opacity=80;" vertex="1" parent="1">
                    <mxGeometry x="365" y="320" width="170" height="170" as="geometry"/>
                </mxCell>
                <mxCell id="15" value="&lt;font face=&quot;Arial&quot;&gt;&lt;span style=&quot;font-size: 14px;&quot;&gt;&lt;b&gt;Sustainable Planning&lt;/b&gt;&lt;/span&gt;&lt;/font&gt;" style="text;html=1;strokeColor=none;fillColor=none;align=center;verticalAlign=middle;whiteSpace=wrap;rounded=0;fontColor=#228B22;" vertex="1" parent="1">
                    <mxGeometry x="380" y="330" width="140" height="30" as="geometry"/>
                </mxCell>
                <mxCell id="16" value="&lt;div style=&quot;font-size: 12px; text-align: left;&quot;&gt;&lt;font face=&quot;Arial&quot; style=&quot;font-size: 12px;&quot;&gt;• Minimize unnecessary visits&lt;/font&gt;&lt;/div&gt;&lt;div style=&quot;font-size: 12px; text-align: left;&quot;&gt;&lt;font face=&quot;Arial&quot; style=&quot;font-size: 12px;&quot;&gt;• Utilize telemedicine&lt;/font&gt;&lt;/div&gt;&lt;div style=&quot;font-size: 12px; text-align: left;&quot;&gt;&lt;font face=&quot;Arial&quot; style=&quot;font-size: 12px;&quot;&gt;• Strategic site selection&lt;/font&gt;&lt;/div&gt;&lt;div style=&quot;font-size: 12px; text-align: left;&quot;&gt;&lt;font face=&quot;Arial&quot; style=&quot;font-size: 12px;&quot;&gt;• Optimize lab processes&lt;/font&gt;&lt;/div&gt;&lt;div style=&quot;font-size: 12px; text-align: left;&quot;&gt;&lt;font face=&quot;Arial&quot; style=&quot;font-size: 12px;&quot;&gt;• Local sample processing&lt;/font&gt;&lt;/div&gt;&lt;div style=&quot;font-size: 12px; text-align: left;&quot;&gt;&lt;font face=&quot;Arial&quot; style=&quot;font-size: 12px;&quot;&gt;• Digital-first documentation&lt;/font&gt;&lt;/div&gt;" style="text;html=1;strokeColor=none;fillColor=none;align=center;verticalAlign=middle;whiteSpace=wrap;rounded=0;" vertex="1" parent="1">
                    <mxGeometry x="370" y="360" width="160" height="120" as="geometry"/>
                </mxCell>
                <mxCell id="17" value="" style="rounded=1;whiteSpace=wrap;html=1;shadow=1;glass=0;fillColor=#FFF3E0;strokeColor=#FF8C00;opacity=80;" vertex="1" parent="1">
                    <mxGeometry x="565" y="320" width="170" height="170" as="geometry"/>
                </mxCell>
                <mxCell id="18" value="&lt;font face=&quot;Arial&quot;&gt;&lt;span style=&quot;font-size: 14px;&quot;&gt;&lt;b&gt;Green Operations&lt;/b&gt;&lt;/span&gt;&lt;/font&gt;" style="text;html=1;strokeColor=none;fillColor=none;align=center;verticalAlign=middle;whiteSpace=wrap;rounded=0;fontColor=#FF8C00;" vertex="1" parent="1">
                    <mxGeometry x="580" y="330" width="140" height="30" as="geometry"/>
                </mxCell>
                <mxCell id="19" value="&lt;div style=&quot;font-size: 12px; text-align: left;&quot;&gt;&lt;font face=&quot;Arial&quot; style=&quot;font-size: 12px;&quot;&gt;• Remote monitoring&lt;/font&gt;&lt;/div&gt;&lt;div style=&quot;font-size: 12px; text-align: left;&quot;&gt;&lt;font face=&quot;Arial&quot; style=&quot;font-size: 12px;&quot;&gt;• Digital data collection&lt;/font&gt;&lt;/div&gt;&lt;div style=&quot;font-size: 12px; text-align: left;&quot;&gt;&lt;font face=&quot;Arial&quot; style=&quot;font-size: 12px;&quot;&gt;• Optimize freezer temps&lt;/font&gt;&lt;/div&gt;&lt;div style=&quot;font-size: 12px; text-align: left;&quot;&gt;&lt;font face=&quot;Arial&quot; style=&quot;font-size: 12px;&quot;&gt;• Reduce/reuse lab materials&lt;/font&gt;&lt;/div&gt;&lt;div style=&quot;font-size: 12px; text-align: left;&quot;&gt;&lt;font face=&quot;Arial&quot; style=&quot;font-size: 12px;&quot;&gt;• Green lab certification&lt;/font&gt;&lt;/div&gt;&lt;div style=&quot;font-size: 12px; text-align: left;&quot;&gt;&lt;font face=&quot;Arial&quot; style=&quot;font-size: 12px;&quot;&gt;• Staff sustainability training&lt;/font&gt;&lt;/div&gt;" style="text;html=1;strokeColor=none;fillColor=none;align=center;verticalAlign=middle;whiteSpace=wrap;rounded=0;" vertex="1" parent="1">
                    <mxGeometry x="570" y="360" width="160" height="120" as="geometry"/>
                </mxCell>
                <mxCell id="20" value="" style="rounded=1;whiteSpace=wrap;html=1;shadow=1;glass=0;fillColor=#FFEBEE;strokeColor=#B22222;opacity=80;" vertex="1" parent="1">
                    <mxGeometry x="765" y="320" width="170" height="170" as="geometry"/>
                </mxCell>
                <mxCell id="21" value="&lt;font face=&quot;Arial&quot;&gt;&lt;span style=&quot;font-size: 14px;&quot;&gt;&lt;b&gt;Impact Tracking&lt;/b&gt;&lt;/span&gt;&lt;/font&gt;" style="text;html=1;strokeColor=none;fillColor=none;align=center;verticalAlign=middle;whiteSpace=wrap;rounded=0;fontColor=#B22222;" vertex="1" parent="1">
                    <mxGeometry x="780" y="330" width="140" height="30" as="geometry"/>
                </mxCell>
                <mxCell id="22" value="&lt;div style=&quot;font-size: 12px; text-align: left;&quot;&gt;&lt;font face=&quot;Arial&quot; style=&quot;font-size: 12px;&quot;&gt;• Measure actual vs. estimated&lt;/font&gt;&lt;/div&gt;&lt;div style=&quot;font-size: 12px; text-align: left;&quot;&gt;&lt;font face=&quot;Arial&quot; style=&quot;font-size: 12px;&quot;&gt;&amp;nbsp; CO₂e emissions&lt;/font&gt;&lt;/div&gt;&lt;div style=&quot;font-size: 12px; text-align: left;&quot;&gt;&lt;font face=&quot;Arial&quot; style=&quot;font-size: 12px;&quot;&gt;• Document cost savings&lt;/font&gt;&lt;/div&gt;&lt;div style=&quot;font-size: 12px; text-align: left;&quot;&gt;&lt;font face=&quot;Arial&quot; style=&quot;font-size: 12px;&quot;&gt;• Continuous improvement&lt;/font&gt;&lt;/div&gt;&lt;div style=&quot;font-size: 12px; text-align: left;&quot;&gt;&lt;font face=&quot;Arial&quot; style=&quot;font-size: 12px;&quot;&gt;• Share best practices&lt;/font&gt;&lt;/div&gt;&lt;div style=&quot;font-size: 12px; text-align: left;&quot;&gt;&lt;font face=&quot;Arial&quot; style=&quot;font-size: 12px;&quot;&gt;• Report to stakeholders&lt;/font&gt;&lt;/div&gt;" style="text;html=1;strokeColor=none;fillColor=none;align=center;verticalAlign=middle;whiteSpace=wrap;rounded=0;" vertex="1" parent="1">
                    <mxGeometry x="770" y="360" width="160" height="120" as="geometry"/>
                </mxCell>
                <mxCell id="23" value="&lt;i&gt;&lt;font style=&quot;font-size: 16px;&quot; face=&quot;Arial&quot; color=&quot;#00539B&quot;&gt;18-2,500 tonnes CO₂e per trial | 25-2,452 kg CO₂e per participant&lt;/font&gt;&lt;/i&gt;" style="text;html=1;strokeColor=none;fillColor=none;align=center;verticalAlign=middle;whiteSpace=wrap;rounded=0;" vertex="1" parent="1">
                    <mxGeometry x="250" y="510" width="600" height="30" as="geometry"/>
                </mxCell>
                <mxCell id="24" value="&lt;font color=&quot;#666666&quot; style=&quot;font-size: 11px;&quot; face=&quot;Arial&quot;&gt;&lt;i&gt;Source: BMJ Open, 2024 | MedRxiv, 2024&lt;/i&gt;&lt;/font&gt;" style="text;html=1;strokeColor=none;fillColor=none;align=right;verticalAlign=middle;whiteSpace=wrap;rounded=0;" vertex="1" parent="1">
                    <mxGeometry x="630" y="540" width="220" height="20" as="geometry"/>
                </mxCell>
                <mxCell id="25" value="" style="shape=flexArrow;endArrow=classic;startArrow=classic;html=1;rounded=0;fillColor=#00539B;strokeColor=none;width=16;endSize=6.33;startSize=6.33;opacity=30;" edge="1" parent="1">
                    <mxGeometry width="100" height="100" relative="1" as="geometry">
                        <mxPoint x="800" y="110" as="sourcePoint"/>
                        <mxPoint x="250" y="110" as="targetPoint"/>
                    </mxGeometry>
                </mxCell>
                <mxCell id="26" value="&lt;font style=&quot;font-size: 12px;&quot; face=&quot;Arial&quot; color=&quot;#00539B&quot;&gt;&lt;b&gt;Continuous Improvement Cycle&lt;/b&gt;&lt;/font&gt;" style="text;html=1;strokeColor=none;fillColor=none;align=center;verticalAlign=middle;whiteSpace=wrap;rounded=0;" vertex="1" parent="1">
                    <mxGeometry x="450" y="80" width="200" height="30" as="geometry"/>
                </mxCell>
            </root>
        </mxGraphModel>
    </diagram>
</mxfile>
